<!-- icon666.com - MILLIONS vector ICONS FREE --><svg fill="none" viewBox="0 0 24 24" xmlns="http://www.w3.org/2000/svg"><path clip-rule="evenodd" d="m2 12c0-5.52 4.49-10 10-10l.2798.00384c5.3908.14832 9.7202 4.56972 9.7202 9.99616 0 5.51-4.48 10-10 10-5.51 0-10-4.49-10-10zm11.98 4c.29-.3.29-.77-.01-1.06l-2.95-2.94 2.95-2.94c.3-.29.3-.77.01-1.06-.3-.3-.77-.3-1.06 0l-3.49 3.47c-.14.14-.22.33-.22.53s.08.39.22.53l3.49 3.47c.14.15.33.22.52.22.2 0 .39-.07.54-.22z" fill="rgb(0,0,0)" fill-rule="evenodd" style="fill: rgb(255, 255, 255);"></path></svg>