<svg width="15" height="17" viewBox="0 0 15 17" fill="none" xmlns="http://www.w3.org/2000/svg">
<path d="M4.44724 13.8559L4.76864 14.4069C6.21493 16.8862 9.1075 16.8862 10.5538 14.4069L10.8752 13.8559M1.38017 11.887L1.46321 12.0582C1.99655 13.1577 3.11117 13.8559 4.33321 13.8559H10.9386C11.9858 13.8559 12.9604 13.3209 13.5226 12.4374C14.3163 11.1904 14.1061 9.55436 13.023 8.54844L12.9877 8.51569C12.2523 7.83271 11.8902 6.83773 12.0147 5.84184L12.0666 5.42649C12.3604 3.07606 10.5277 1 8.15898 1H6.7907C4.42487 1 2.59439 3.07353 2.88784 5.42109L2.9516 5.93119C3.06902 6.87057 2.72589 7.80888 2.03015 8.45089C1.07985 9.32782 0.815825 10.7236 1.38017 11.887Z" stroke="#151D48" stroke-linecap="round"/>
</svg>
