<svg width="26" height="26" viewBox="0 0 26 26" fill="none" xmlns="http://www.w3.org/2000/svg">
<g clip-path="url(#clip0_400_2737)">
<path d="M25.3792 13.1232C25.3792 12.2741 25.3104 11.4203 25.1635 10.585H13.3809V15.3953H20.1282C19.8482 16.9467 18.9486 18.3192 17.6312 19.1913V22.3125H21.6567C24.0206 20.1368 25.3792 16.9238 25.3792 13.1232Z" fill="#4285F4"/>
<path d="M13.3798 25.3285C16.7488 25.3285 19.5901 24.2223 21.6602 22.3129L17.6347 19.1917C16.5147 19.9536 15.0689 20.3851 13.3843 20.3851C10.1254 20.3851 7.36222 18.1864 6.37078 15.2305H2.2168V18.4481C4.33739 22.6663 8.65661 25.3285 13.3798 25.3285V25.3285Z" fill="#34A853"/>
<path d="M6.36687 15.2309C5.84361 13.6795 5.84361 11.9995 6.36687 10.4481V7.23047H2.21749C0.445734 10.7602 0.445734 14.9188 2.21749 18.4485L6.36687 15.2309V15.2309Z" fill="#FBBC04"/>
<path d="M13.3798 5.28903C15.1607 5.26149 16.8819 5.93164 18.1717 7.16176L21.7382 3.59531C19.4799 1.47472 16.4826 0.308848 13.3798 0.345568C8.65661 0.345568 4.33739 3.00779 2.2168 7.23061L6.36618 10.4482C7.35304 7.48766 10.1208 5.28903 13.3798 5.28903V5.28903Z" fill="#EA4335"/>
</g>
<defs>
<clipPath id="clip0_400_2737">
<rect width="24.9835" height="24.9835" fill="white" transform="translate(0.638672 0.344727)"/>
</clipPath>
</defs>
</svg>
