<!-- icon666.com - MILLIONS vector ICONS FREE --><svg viewBox="0 0 64 64" xmlns="http://www.w3.org/2000/svg"><g id="Layer_8" data-name="Layer 8"><path d="m62.76 26.2212a19.5432 19.5432 0 0 1 -1.97 4.0341c-.217.3544-.4555.698-.7043 1.0421-.2445.3382-.5064.6665-.7757.985l-2.55 3.0154-2.13 2.5213-21.87 25.8273a.9944.9944 0 0 1 -1.5209 0l-24-28.3485-2.5491-3.0155c-.2693-.3185-.5312-.6468-.7757-.985-.2488-.3441-.4873-.6877-.7043-1.0421a19.5432 19.5432 0 0 1 -1.97-4.0341c-2.43-6.8679-1.28-15.0873 3.45-20.6845a14.7871 14.7871 0 0 1 11.31-5.5367 14.7871 14.7871 0 0 1 11.31 5.5367l4.69 5.5468 4.69-5.5468a14.32 14.32 0 0 1 22.62 0c4.73 5.5972 5.88 13.8166 3.45 20.6845z" fill="currentColor"></path></g></svg>