<svg width="41" height="41" viewBox="0 0 41 41" fill="none" xmlns="http://www.w3.org/2000/svg">
<path d="M19.5276 6.11357C19.9322 5.0609 21.4215 5.0609 21.8261 6.11357C22.6132 8.16157 25.169 8.84637 26.8746 7.46631C27.7513 6.75696 29.0411 7.50163 28.8652 8.61555C28.5228 10.7827 30.3938 12.6537 32.561 12.3113C33.6749 12.1354 34.4195 13.4252 33.7102 14.3019C32.3301 16.0075 33.0149 18.5633 35.0629 19.3504C36.1156 19.755 36.1156 21.2443 35.0629 21.6489C33.0149 22.436 32.3301 24.9917 33.7102 26.6974C34.4195 27.5741 33.6749 28.8639 32.561 28.6879C30.3938 28.3456 28.5228 30.2165 28.8652 32.3837C29.0411 33.4976 27.7513 34.2423 26.8746 33.5329C25.169 32.1529 22.6132 32.8377 21.8261 34.8857C21.4215 35.9384 19.9322 35.9384 19.5276 34.8857C18.7405 32.8377 16.1848 32.1529 14.4791 33.5329C13.6024 34.2423 12.3126 33.4976 12.4886 32.3837C12.8309 30.2165 10.96 28.3456 8.7928 28.6879C7.67887 28.8639 6.93421 27.5741 7.64356 26.6974C9.02362 24.9917 8.33881 22.436 6.29081 21.6489C5.23814 21.2443 5.23814 19.755 6.29081 19.3504C8.33881 18.5633 9.02362 16.0075 7.64356 14.3019C6.93421 13.4252 7.67887 12.1354 8.7928 12.3113C10.96 12.6537 12.8309 10.7827 12.4886 8.61555C12.3126 7.50163 13.6024 6.75697 14.4791 7.46631C16.1848 8.84637 18.7405 8.16156 19.5276 6.11357Z" stroke="#5956E9" stroke-width="2"/>
<circle cx="20.6768" cy="20.4995" r="9.2876" stroke="#5956E9" stroke-width="2"/>
</svg>
