<svg width="38" height="45" viewBox="0 0 38 45" fill="none" xmlns="http://www.w3.org/2000/svg">
<path d="M25.7902 44H5.72502C3.1117 44 1 41.8691 1 39.2403V11.5071C1 8.87824 3.1117 6.73926 5.72502 6.73926H25.7983C28.4035 6.73926 30.5233 8.87007 30.5233 11.5071V39.2403C30.5152 41.8691 28.4035 44 25.7902 44Z" stroke="#5956E9" stroke-width="2" stroke-miterlimit="10"/>
<path d="M29.8277 13.7607H26.9555C24.8519 13.7607 23.1528 12.0462 23.1528 9.92359V6.93555" stroke="#5956E9" stroke-width="2" stroke-miterlimit="10"/>
<path d="M10.6685 1H29.0669C32.9748 1 36.1463 4.20031 36.1463 8.14354V38.0239" stroke="#5956E9" stroke-width="2" stroke-miterlimit="10" stroke-linecap="round"/>
<path d="M7.69922 24.0635H23.2578" stroke="#5956E9" stroke-width="2" stroke-miterlimit="10" stroke-linecap="round"/>
<path d="M7.69922 29.4189H23.2578" stroke="#5956E9" stroke-width="2" stroke-miterlimit="10" stroke-linecap="round"/>
<path d="M7.69922 34.8076H23.2578" stroke="#5956E9" stroke-width="2" stroke-miterlimit="10" stroke-linecap="round"/>
</svg>
