<svg width="30" height="27" viewBox="0 0 30 27" fill="none" xmlns="http://www.w3.org/2000/svg">
<path d="M24.6818 25.1165L28.6567 2.22111C28.7907 1.44889 28.0247 0.829608 27.2977 1.12252L2.13976 11.2588C1.35323 11.5757 1.29333 12.6662 2.04041 13.0674L8.90224 16.7518C9.15699 16.8886 9.34006 17.129 9.40424 17.4109L10.7748 23.4321C10.9394 24.1551 11.8058 24.4538 12.381 23.9859L15.9915 21.0485C16.3574 20.7509 16.8815 20.7493 17.2492 21.0449L23.0699 25.7247C23.6636 26.202 24.5515 25.8669 24.6818 25.1165Z" stroke="#5956E9" stroke-width="2"/>
<path d="M20.9929 6.76851L7.88372 15.2443C7.69574 15.3658 7.61145 15.5975 7.67737 15.8114L10.1902 23.9656C10.2548 24.1753 10.4486 24.3184 10.668 24.3184H10.8462C11.1134 24.3184 11.3334 24.1082 11.3457 23.8413L11.6561 17.0717C11.6621 16.9416 11.7186 16.8189 11.8137 16.7298L21.6062 7.55324C22.051 7.13646 21.5047 6.43757 20.9929 6.76851Z" fill="#5956E9"/>
</svg>
