<!-- icon666.com - MILLIONS vector ICONS FREE --><svg version="1.1" id="Capa_1" xmlns="http://www.w3.org/2000/svg" xmlns:xlink="http://www.w3.org/1999/xlink" x="0px" y="0px" viewBox="0 0 512 512" style="enable-background:new 0 0 512 512;" xml:space="preserve"><g><path style="fill: rgb(249, 108, 136);" d="M494.91,337.839v73.344c0,4.486-3.633,8.119-8.119,8.119h-72.634c-4.486,0-8.119-3.633-8.119-8.119 v-73.344c0-4.486,3.633-8.119,8.119-8.119h72.634C491.277,329.72,494.91,333.353,494.91,337.839z" fill="#FF3C63"></path><path style="fill: rgb(249, 108, 136);" d="M262.586,181.022v230.161c0,4.486-3.633,8.119-8.119,8.119h-72.634 c-4.476,0-8.119-3.633-8.119-8.119V181.022c0-4.334,3.42-7.886,7.703-8.109c0.132-0.01,0.274-0.01,0.416-0.01h72.634 c0.142,0,0.284,0,0.416,0.01C259.177,173.136,262.586,176.688,262.586,181.022z" fill="#FF3C63"></path></g><path style="fill: rgb(229, 31, 77);" d="M229.055,400.507c0,6.383-0.467,12.665-1.37,18.795h-45.852c-4.476,0-8.119-3.633-8.119-8.119 V294.585C207.165,317.897,229.055,356.654,229.055,400.507z" fill="#EA2F5C"></path><path style="fill: rgb(249, 108, 136);" d="M144.456,89.075v322.108c0,4.486-3.633,8.119-8.119,8.119H63.713c-4.486,0-8.119-3.633-8.119-8.119 V89.075c0-4.486,3.633-8.119,8.119-8.119h72.624C140.823,80.956,144.456,84.589,144.456,89.075z" fill="#FF3C63"></path><path style="fill: rgb(229, 31, 77);" d="M144.456,279.332v131.851c0,4.486-3.633,8.119-8.119,8.119H63.713c-4.486,0-8.119-3.633-8.119-8.119 V279.321c13.843-5.064,28.812-7.845,44.431-7.845S130.603,274.257,144.456,279.332z" fill="#EA2F5C"></path><g><path style="fill: rgb(255, 128, 157);" d="M144.456,89.075v21.728H55.594V89.075c0-4.486,3.633-8.119,8.119-8.119h72.624 C140.823,80.956,144.456,84.589,144.456,89.075z" fill="#FF557E"></path><path style="fill: rgb(255, 128, 157);" d="M262.586,181.022v21.738h-88.872v-21.738c0-4.334,3.42-7.886,7.703-8.109h73.466 C259.177,173.136,262.586,176.688,262.586,181.022z" fill="#FF557E"></path></g><path style="fill: rgb(229, 31, 77);" d="M262.586,389.455v21.728c0,4.486-3.633,8.119-8.119,8.119h-72.634c-4.476,0-8.119-3.633-8.119-8.119 v-21.728H262.586z" fill="#EA2F5C"></path><path style="fill: rgb(249, 108, 136);" d="M377.459,272.451v138.732c0,4.486-3.633,8.119-8.119,8.119h-72.624c-4.486,0-8.119-3.633-8.119-8.119 V272.451c0-4.486,3.633-8.119,8.119-8.119h72.624C373.826,264.332,377.459,267.965,377.459,272.451z" fill="#FF3C63"></path><g><path style="fill: rgb(255, 128, 157);" d="M377.459,272.451v21.728h-88.862v-21.728c0-4.486,3.633-8.119,8.119-8.119h72.624 C373.826,264.332,377.459,267.965,377.459,272.451z" fill="#FF557E"></path><path style="fill: rgb(255, 128, 157);" d="M494.91,337.839v21.728h-88.872v-21.728c0-4.486,3.633-8.119,8.119-8.119h72.634 C491.277,329.72,494.91,333.353,494.91,337.839z" fill="#FF557E"></path></g><g><path style="fill: rgb(229, 31, 77);" d="M377.459,389.455v21.728c0,4.486-3.633,8.119-8.119,8.119h-72.624c-4.486,0-8.119-3.633-8.119-8.119 v-21.728H377.459z" fill="#EA2F5C"></path><path style="fill: rgb(229, 31, 77);" d="M494.91,389.455v21.728c0,4.486-3.633,8.119-8.119,8.119h-72.634c-4.486,0-8.119-3.633-8.119-8.119 v-21.728H494.91z" fill="#EA2F5C"></path></g><path style="fill: rgb(249, 108, 136);" d="M415.527,27.198v44.157c0,4.486-3.633,8.119-8.119,8.119h-44.157c-4.486,0-8.119-3.633-8.119-8.119 V27.198c0-4.486,3.633-8.119,8.119-8.119h44.157C411.894,19.079,415.527,22.713,415.527,27.198z" fill="#FF3C63"></path><g><path style="" d="M504.388,26.692H453.63c-4.204,0-7.612-3.407-7.612-7.611s3.407-7.611,7.612-7.611h50.758 c4.204,0,7.612,3.407,7.612,7.611S508.593,26.692,504.388,26.692z" fill="#586C89"></path><path style="" d="M504.388,57.608H453.63c-4.204,0-7.612-3.407-7.612-7.611s3.407-7.611,7.612-7.611h50.758 c4.204,0,7.612,3.407,7.612,7.611S508.593,57.608,504.388,57.608z" fill="#586C89"></path><path style="" d="M504.388,87.087H453.63c-4.204,0-7.612-3.407-7.612-7.611s3.407-7.611,7.612-7.611h50.758 c4.204,0,7.612,3.407,7.612,7.611S508.593,87.087,504.388,87.087z" fill="#586C89"></path><path style="" d="M415.527,29.837l-19.435,19.445l19.435,19.435v2.639c0,4.486-3.633,8.119-8.119,8.119h-2.659 L385.324,60.04L365.9,79.474h-2.649c-4.486,0-8.119-3.633-8.119-8.119v-2.649l19.425-19.424l-19.425-19.435v-2.649 c0-4.486,3.633-8.119,8.119-8.119h2.639l19.435,19.435l19.435-19.435h2.649c4.486,0,8.119,3.633,8.119,8.119L415.527,29.837 L415.527,29.837z" fill="#586C89"></path></g><path style="fill: rgb(234, 67, 67);" d="M443.394,257.472c-2.761,0-5.426-1.508-6.775-4.134C382.649,148.351,294.13,95.849,229.375,70.293 c-70.554-27.844-129.099-30.715-129.682-30.74c-4.198-0.185-7.453-3.738-7.271-7.937c0.183-4.198,3.734-7.453,7.931-7.273 c2.467,0.107,61.258,2.937,134.101,31.589c42.817,16.841,81.521,39.163,115.035,66.342c41.959,34.029,75.83,75.784,100.669,124.104 c1.923,3.738,0.45,8.327-3.289,10.249C445.755,257.2,444.566,257.472,443.394,257.472z" fill="#6B7F9E"></path><path style="fill: rgb(229, 31, 77);" d="M465.734,284.265l7.859-37.413c1.358-6.467-5.166-11.761-11.214-9.101l-40.746,17.922 c-6.049,2.661-6.555,11.047-0.871,14.416l32.888,19.491C458.434,292.416,464.59,289.709,465.734,284.265z" fill="#EA2F5C"></path><circle style="fill: rgb(255, 221, 0);" cx="100.02" cy="400.51" r="100.02" fill="#FFCE00"></circle><circle style="fill: rgb(255, 250, 112);" cx="100.02" cy="400.51" r="68.15" fill="#FFE571"></circle><path style="fill: rgb(255, 221, 0);" d="M104.828,393.997h-8.804c-2.164,0-3.924-1.76-3.924-3.925s1.76-3.925,3.924-3.925h12.884 c0.712,3.466,3.779,6.072,7.456,6.072c4.204,0,7.611-3.407,7.611-7.611c0-7.545-6.138-13.684-13.683-13.684h-2.255v-6.149 c0-4.204-3.408-7.612-7.611-7.612c-4.204,0-7.611,3.407-7.611,7.612v6.44c-9.032,1.534-15.938,9.394-15.938,18.857 c0,10.558,8.589,19.148,19.147,19.148h8.804c2.164,0,3.924,1.76,3.924,3.924c0,2.165-1.76,3.925-3.924,3.925H91.944 c-0.712-3.466-3.779-6.071-7.455-6.071c-4.204,0-7.611,3.407-7.611,7.612c0,7.545,6.138,13.683,13.683,13.683h2.255v6.149 c0,4.204,3.408,7.611,7.611,7.611c4.204,0,7.611-3.407,7.611-7.611V432c9.032-1.534,15.938-9.394,15.938-18.857 C123.975,402.586,115.386,393.997,104.828,393.997z" fill="#FFCE00"></path><g><path style="" d="M223.669,464.753c-4.142,0-7.5-3.357-7.5-7.5v-8.313c0-4.143,3.358-7.5,7.5-7.5s7.5,3.357,7.5,7.5 v8.313C231.169,461.396,227.811,464.753,223.669,464.753z" fill="#586C89"></path><path style="" d="M256,464.753c-4.142,0-7.5-3.357-7.5-7.5v-8.313c0-4.143,3.358-7.5,7.5-7.5 c4.143,0,7.5,3.357,7.5,7.5v8.313C263.5,461.396,260.143,464.753,256,464.753z" fill="#586C89"></path><path style="" d="M288.331,464.753c-4.143,0-7.5-3.357-7.5-7.5v-8.313c0-4.143,3.357-7.5,7.5-7.5s7.5,3.357,7.5,7.5 v8.313C295.831,461.396,292.474,464.753,288.331,464.753z" fill="#586C89"></path></g></svg>