<svg width="18" height="16" viewBox="0 0 18 16" fill="none" xmlns="http://www.w3.org/2000/svg">
<path d="M0.996374 3.12785C0.507812 4.16236 0.507812 5.63941 0.507812 8.23144C0.507812 11.2443 0.507812 12.7508 1.27508 13.8068C1.52288 14.1479 1.82281 14.4478 2.16387 14.6956C3.21992 15.4629 4.72637 15.4629 7.73925 15.4629H9.34624C12.3591 15.4629 13.8656 15.4629 14.9216 14.6956C15.2627 14.4478 15.5626 14.1479 15.8104 13.8068C16.5777 12.7508 16.5777 11.2443 16.5777 8.23144C16.5777 5.62109 16.5777 4.14154 16.0787 3.10598M0.996374 3.12785C1.0757 2.95988 1.1679 2.80357 1.27508 2.65606C1.52288 2.315 1.82281 2.01506 2.16387 1.76727C3.21992 1 4.72637 1 7.73925 1H9.34624C12.3591 1 13.8656 1 14.9216 1.76727C15.2627 2.01506 15.5626 2.315 15.8104 2.65606C15.9129 2.79715 16.0017 2.94629 16.0787 3.10598M0.996374 3.12785L1.31131 3.41048L2.86119 4.96036C5.5395 7.63867 6.87865 8.97783 8.54274 8.97783C10.2068 8.97783 11.546 7.63867 14.2243 4.96036L15.7742 3.41048L16.0787 3.10598" stroke="#151D48"/>
</svg>
