<!-- icon666.com - MILLIONS vector ICONS FREE --><svg viewBox="0 0 64 64" xmlns="http://www.w3.org/2000/svg"><g id="profit"><path d="m40 27v31h-7v-31a1.0029 1.0029 0 0 1 1-1h5a1.0029 1.0029 0 0 1 1 1z" fill="#06c458"></path><path d="m38.08 26a45.6361 45.6361 0 0 1 -5.08 19.16v-18.16a1.0029 1.0029 0 0 1 1-1z" fill="#34d143"></path><path d="m51 22v36h-7v-36a1.0029 1.0029 0 0 1 1-1h5a1.0029 1.0029 0 0 1 1 1z" fill="#06c458"></path><path d="m48.87 21a45.5638 45.5638 0 0 1 -4.87 19.2v-18.2a1.0029 1.0029 0 0 1 1-1z" fill="#34d143"></path><path d="m62 17v41h-7v-41a1.0029 1.0029 0 0 1 1-1h5a1.0029 1.0029 0 0 1 1 1z" fill="#06c458"></path><path d="m59.64 16a45.6487 45.6487 0 0 1 -4.64 20.11v-19.11a1.0029 1.0029 0 0 1 1-1z" fill="#34d143"></path><path d="m51.8066 7.6357a1 1 0 0 0 -.6337-.583l-8.5977-2.6445a1 1 0 0 0 -1.2217 1.3291l.9121 2.2647-9.6064 2.7959a2.0006 2.0006 0 0 0 -1.2969 2.6669l1.6621 4.1309a2.0019 2.0019 0 0 0 2.7813 1.0254l8.8691-4.63.9082 2.2549a1 1 0 0 0 1.8018.1113l4.3681-7.8633a1 1 0 0 0 .0537-.8583z" fill="#34d143"></path><path d="m62 59h-43a1 1 0 0 1 0-2h43a1 1 0 0 1 0 2z" fill="#333"></path><path d="m36 41.08c0 .2244-.0068.4556-.0136.68a16.9388 16.9388 0 0 1 -4.4948 10.8528q-.459.5-.9588.9588a16.9388 16.9388 0 0 1 -10.8528 4.4948c-.2244.0068-.4556.0136-.68.0136s-.4556-.0068-.68-.0136a16.9225 16.9225 0 0 1 -7.3168-1.9788 17.1125 17.1125 0 0 1 -3.536-2.516q-.5-.459-.9588-.9588a16.9388 16.9388 0 0 1 -4.4948-10.8528c-.0068-.2244-.0136-.4556-.0136-.68s.0068-.4556.0136-.68a16.9388 16.9388 0 0 1 4.4948-10.8528q.459-.5.9588-.9588a16.9388 16.9388 0 0 1 10.8528-4.4948c.2244-.0068.4556-.0136.68-.0136s.4556.0068.68.0136a17.02 17.02 0 0 1 10.8528 4.4948q.5.459.9588.9588a16.9388 16.9388 0 0 1 4.4948 10.8528c.0068.2244.0136.4556.0136.68z" fill="#ffc239"></path><path d="m28.6424 27.0788a44.8362 44.8362 0 0 1 -17.6392 29.0088 17.1125 17.1125 0 0 1 -3.536-2.516q-.5-.459-.9588-.9588a16.9388 16.9388 0 0 1 -4.4948-10.8528c-.0068-.2244-.0136-.4556-.0136-.68s.0068-.4556.0136-.68a16.9388 16.9388 0 0 1 4.4948-10.8528q.459-.5.9588-.9588a16.9388 16.9388 0 0 1 10.8528-4.4948c.2244-.0068.4556-.0136.68-.0136s.4556.0068.68.0136a16.9188 16.9188 0 0 1 8.9624 2.9852z" fill="#ffe266"></path><g fill="#ffad1d"><path d="m19.68 24.0936v4.0664a.68.68 0 0 1 -1.36 0v-4.0664z"></path><path d="m10.3436 32.4236a.6813.6813 0 0 1 -.9588 0l-2.8764-2.8764q.459-.5.9588-.9588l2.8764 2.8764a.6772.6772 0 0 1 0 .9588z"></path><path d="m6.76 41.08a.682.682 0 0 1 -.68.68h-4.0664c-.0068-.2244-.0136-.4556-.0136-.68s.0068-.4556.0136-.68h4.0664a.682.682 0 0 1 .68.68z"></path><path d="m10.3436 50.6952-2.8764 2.8764q-.5-.459-.9588-.9588l2.8764-2.8764a.678.678 0 0 1 .9588.9588z"></path><path d="m19.68 54v4.0664c-.2244.0068-.4556.0136-.68.0136s-.4556-.0068-.68-.0136v-4.0664a.68.68 0 0 1 1.36 0z"></path><path d="m31.4916 52.6128q-.459.5-.9588.9588l-2.8764-2.8764a.678.678 0 0 1 .9588-.9588z"></path><path d="m36 41.08c0 .2244-.0068.4556-.0136.68h-4.0664a.68.68 0 0 1 0-1.36h4.0664c.0068.2244.0136.4556.0136.68z"></path><path d="m31.4916 29.5472-2.8764 2.8764a.6813.6813 0 0 1 -.9588 0 .6772.6772 0 0 1 0-.9588l2.8764-2.8764q.4998.459.9588.9588z"></path><path d="m32.6 41.08a13.6107 13.6107 0 1 1 -4.7124-10.2884 13.6137 13.6137 0 0 1 4.7124 10.2884z"></path></g><path d="m27.8876 30.7916a44.82 44.82 0 0 1 -13.94 22.916 13.5992 13.5992 0 1 1 13.94-22.916z" fill="#ffc239"></path><path d="m19 48.56a4.0845 4.0845 0 0 1 -4.08-4.08.68.68 0 0 1 1.36 0 2.72 2.72 0 0 0 5.44 0v-.68a2.0423 2.0423 0 0 0 -2.04-2.04h-1.36a3.4041 3.4041 0 0 1 -3.4-3.4v-.68a4.08 4.08 0 1 1 8.16 0 .68.68 0 0 1 -1.36 0 2.72 2.72 0 0 0 -5.44 0v.68a2.0423 2.0423 0 0 0 2.04 2.04h1.36a3.4041 3.4041 0 0 1 3.4 3.4v.68a4.0845 4.0845 0 0 1 -4.08 4.08z" fill="#ffe266"></path><path d="m19 34.96a.68.68 0 0 1 -.68-.68v-1.36a.68.68 0 0 1 1.36 0v1.36a.68.68 0 0 1 -.68.68z" fill="#ffe266"></path><path d="m19 49.92a.68.68 0 0 1 -.68-.68v-1.36a.68.68 0 0 1 1.36 0v1.36a.68.68 0 0 1 -.68.68z" fill="#ffe266"></path></g></svg>