<svg width="19" height="20" viewBox="0 0 19 20" fill="currentColor" xmlns="http://www.w3.org/2000/svg">
<path fill-rule="evenodd" clip-rule="evenodd" d="M0 8.5C0 3.80557 3.54821 0 7.92517 0C12.3021 0 15.8503 3.80557 15.8503 8.5C15.8503 10.3205 15.3167 12.0073 14.4081 13.3903L17.6381 16.8522C17.9965 17.2363 17.9965 17.8324 17.6381 18.2165L17.0827 18.8118C16.6873 19.2356 16.0157 19.2356 15.6204 18.8118L12.4859 15.4524C11.1962 16.4274 9.62302 17 7.92517 17C3.54821 17 0 13.1944 0 8.5ZM7.92513 14.5714C4.80375 14.5714 2.2643 11.8478 2.2643 8.5C2.2643 5.15221 4.80375 2.42857 7.92513 2.42857C11.0465 2.42857 13.586 5.15221 13.586 8.5C13.586 11.8478 11.0465 14.5714 7.92513 14.5714V14.5714Z" fill="currentColor"/>
</svg>
