<!-- icon666.com - MILLIONS vector ICONS FREE --><svg fill="none" viewBox="0 0 24 24" xmlns="http://www.w3.org/2000/svg"><path d="m10.7018 17.7018c-.1755.1988-.4094.2982-.7018.2982-.26901 0-.50292-.0994-.70175-.2982-.19883-.1989-.29825-.4328-.29825-.7018 0-.2924.09942-.5263.29825-.7018l4.89475-4.8947c.0585-.0585.0994.0292.1228.2632.0234.2222.0234.4503 0 .6842-.0234.2222-.0643.3041-.1228.2456l-4.89475-4.89475c-.19883-.18713-.29825-.42105-.29825-.70175s.09942-.51462.29825-.70175c.19883-.19883.43274-.29825.70175-.29825.2924 0 .5263.09942.7018.29825l4.8947 4.89475c.2222.2105.3333.4795.3333.807 0 .3158-.1111.5848-.3333.807z" fill="currentColor"></path></svg>