<svg width="24" height="23" viewBox="0 0 24 23" fill="none" xmlns="http://www.w3.org/2000/svg">
<path d="M11.0489 1.3001C11.3483 0.378785 12.6517 0.378787 12.9511 1.3001L14.9187 7.35583C15.0526 7.76785 15.4365 8.04681 15.8697 8.04681H22.2371C23.2058 8.04681 23.6086 9.28642 22.8249 9.85583L17.6736 13.5985C17.3231 13.8531 17.1764 14.3045 17.3103 14.7165L19.2779 20.7722C19.5773 21.6935 18.5228 22.4597 17.7391 21.8903L12.5878 18.1476C12.2373 17.893 11.7627 17.893 11.4122 18.1476L6.2609 21.8903C5.47719 22.4597 4.42271 21.6935 4.72206 20.7722L6.68969 14.7165C6.82356 14.3045 6.6769 13.8531 6.32642 13.5985L1.17511 9.85582C0.391392 9.28642 0.794168 8.04681 1.76289 8.04681H8.13026C8.56349 8.04681 8.94744 7.76785 9.08132 7.35583L11.0489 1.3001Z" fill="currentColor"/>
</svg>
