<svg width="74" height="74" viewBox="0 0 74 74" fill="none" xmlns="http://www.w3.org/2000/svg">
<rect width="64" height="64" rx="15" transform="matrix(1 0 0 -1 0 64)" fill="url(#paint0_linear_1_6188)"/>
<g filter="url(#filter0_b_1_6188)">
<rect width="64" height="64" rx="15" transform="matrix(1 0 0 -1 10 74)" fill="#EEEEEE" fill-opacity="0.61"/>
<rect x="0.5" y="-0.5" width="63" height="63" rx="14.5" transform="matrix(1 0 0 -1 10 73)" stroke="white"/>
</g>
<path d="M53.5948 44.0827L53.5946 44.0832C53.3953 44.698 53.4624 45.3469 53.5655 45.8732C53.6542 46.3259 53.7962 46.8056 53.9215 47.2289C53.9444 47.306 53.9666 47.3812 53.9879 47.454C54.1368 47.9633 54.2437 48.3737 54.2754 48.7127C54.3074 49.0549 54.2457 49.1611 54.2304 49.1822L54.2302 49.1825C54.2116 49.208 54.1257 49.3007 53.7902 49.3766C53.4572 49.4519 53.0329 49.4773 52.5031 49.4927C52.4233 49.495 52.3407 49.497 52.2559 49.4992C51.8183 49.5101 51.3237 49.5225 50.8722 49.576C50.3429 49.6387 49.7046 49.7724 49.1829 50.1517L49.1826 50.1519C48.6621 50.5307 48.3406 51.098 48.1205 51.5801C47.9345 51.9874 47.7728 52.4485 47.6293 52.8575C47.5996 52.9421 47.5707 53.0245 47.5425 53.1038C47.3652 53.6025 47.2097 53.9983 47.0345 54.2919C46.8585 54.5867 46.7412 54.6436 46.7048 54.6554L46.7043 54.6556C46.6891 54.6605 46.5762 54.6889 46.2613 54.5512C45.9504 54.4152 45.5945 54.1858 45.1552 53.8854C45.0983 53.8464 45.0397 53.8061 44.9798 53.7649C44.6104 53.5107 44.1896 53.2212 43.7755 52.9924C43.3013 52.7304 42.7019 52.4687 42.0516 52.4687C41.4013 52.4687 40.8019 52.7304 40.3277 52.9924C39.9135 53.2212 39.4928 53.5107 39.1234 53.7649C39.0635 53.8061 39.0049 53.8464 38.9479 53.8854C38.5087 54.1858 38.1528 54.4152 37.8419 54.5512C37.527 54.6889 37.414 54.6605 37.3989 54.6556L37.3983 54.6554C37.3619 54.6436 37.2447 54.5867 37.0687 54.2919C36.8935 53.9983 36.738 53.6025 36.5606 53.1038C36.5324 53.0245 36.5035 52.9421 36.4738 52.8574C36.3304 52.4484 36.1686 51.9874 35.9827 51.5801C35.7625 51.098 35.4411 50.5307 34.9206 50.1519L34.9202 50.1517C34.3986 49.7724 33.7602 49.6387 33.231 49.576C32.7795 49.5225 32.2848 49.5101 31.8473 49.4992C31.7625 49.497 31.6799 49.495 31.6001 49.4927C31.0702 49.4773 30.646 49.4519 30.3129 49.3766C29.9774 49.3007 29.8915 49.208 29.873 49.1825L29.8728 49.1822C29.8575 49.1611 29.7958 49.0549 29.8278 48.7127C29.8595 48.3737 29.9664 47.9633 30.1152 47.454C30.1365 47.3812 30.1588 47.306 30.1816 47.2289C30.3069 46.8056 30.449 46.3259 30.5377 45.8732C30.6407 45.3469 30.7079 44.698 30.5086 44.0832L30.5084 44.0827C30.3103 43.4727 29.869 42.9946 29.4813 42.6404C29.1583 42.3453 28.7771 42.0545 28.4378 41.7956C28.3614 41.7373 28.2871 41.6806 28.216 41.6259C27.7984 41.304 27.471 41.033 27.2468 40.7741C27.0226 40.5153 27 40.3802 27 40.3308C27 40.2814 27.0226 40.1462 27.2468 39.8874C27.471 39.6286 27.7984 39.3575 28.216 39.0357C28.2871 38.9809 28.3614 38.9242 28.4378 38.8659C28.7771 38.6071 29.1583 38.3162 29.4813 38.0212C29.869 37.6669 30.3103 37.1888 30.5084 36.5788L30.5086 36.5783C30.7079 35.9635 30.6407 35.3147 30.5377 34.7884C30.449 34.3356 30.3069 33.8559 30.1816 33.4327C30.1588 33.3556 30.1365 33.2804 30.1152 33.2075C29.9664 32.6983 29.8595 32.2878 29.8278 31.9488C29.7958 31.6067 29.8575 31.5004 29.8728 31.4794L29.873 31.479C29.8915 31.4535 29.9774 31.3608 30.3129 31.285C30.646 31.2096 31.0702 31.1842 31.6001 31.1689C31.6799 31.1666 31.7625 31.1645 31.8473 31.1624C32.2848 31.1514 32.7795 31.139 33.231 31.0855C33.7602 31.0229 34.3986 30.8891 34.9202 30.5098L34.9206 30.5096C35.4411 30.1308 35.7625 29.5635 35.9827 29.0814C36.1686 28.6742 36.3304 28.2131 36.4738 27.8041C36.5035 27.7195 36.5324 27.637 36.5606 27.5578C36.738 27.059 36.8935 26.6632 37.0687 26.3696C37.2447 26.0748 37.3619 26.018 37.3983 26.0061L37.3989 26.006C37.414 26.001 37.527 25.9726 37.8419 26.1104C38.1528 26.2464 38.5087 26.4758 38.9479 26.7762C39.0049 26.8151 39.0635 26.8554 39.1234 26.8966C39.4928 27.1508 39.9135 27.4403 40.3277 27.6692C40.8019 27.9312 41.4013 28.1929 42.0516 28.1929C42.7019 28.1929 43.3013 27.9312 43.7755 27.6692C44.1896 27.4403 44.6104 27.1508 44.9798 26.8966C45.0397 26.8554 45.0983 26.8151 45.1552 26.7762C45.5945 26.4758 45.9504 26.2464 46.2613 26.1104C46.5762 25.9726 46.6891 26.001 46.7043 26.006L46.7048 26.0061C46.7412 26.018 46.8585 26.0748 47.0345 26.3696C47.2097 26.6632 47.3652 27.059 47.5425 27.5578C47.5707 27.637 47.5996 27.7194 47.6293 27.8041C47.7728 28.2131 47.9345 28.6742 48.1205 29.0814C48.3406 29.5635 48.6621 30.1308 49.1826 30.5096L49.1829 30.5098C49.7046 30.8891 50.3429 31.0229 50.8722 31.0855C51.3237 31.139 51.8183 31.1514 52.2559 31.1624C52.3407 31.1645 52.4233 31.1666 52.5031 31.1689C53.0329 31.1842 53.4572 31.2096 53.7902 31.285C54.1257 31.3608 54.2116 31.4535 54.2302 31.479L54.2304 31.4794C54.2457 31.5004 54.3074 31.6067 54.2754 31.9488C54.2437 32.2878 54.1368 32.6983 53.9879 33.2075C53.9666 33.2804 53.9444 33.3556 53.9215 33.4327C53.7962 33.8559 53.6542 34.3356 53.5655 34.7884C53.4624 35.3147 53.3953 35.9635 53.5946 36.5783C53.7919 37.1883 54.2336 37.666 54.6206 38.0193C54.9428 38.3134 55.3235 38.6035 55.6624 38.8619C55.7394 38.9207 55.8143 38.9777 55.8859 39.0329C56.3036 39.3546 56.6312 39.6258 56.8557 39.8851C57.08 40.1441 57.1032 40.28 57.1032 40.3308C57.1032 40.3818 57.08 40.5175 56.8562 40.776C56.6321 41.0348 56.305 41.3056 55.8874 41.6271C55.8161 41.6821 55.7414 41.739 55.6645 41.7976C55.3256 42.0559 54.9448 42.3462 54.6223 42.6406C54.2345 42.9946 53.7929 43.4725 53.5948 44.0827ZM42 47C45.866 47 49 43.866 49 40C49 36.134 45.866 33 42 33C38.134 33 35 36.134 35 40C35 43.866 38.134 47 42 47ZM47 40C47 42.7614 44.7614 45 42 45C39.2386 45 37 42.7614 37 40C37 37.2386 39.2386 35 42 35C44.7614 35 47 37.2386 47 40Z" stroke="#E749EE" stroke-width="2"/>
<defs>
<filter id="filter0_b_1_6188" x="2" y="2" width="80" height="80" filterUnits="userSpaceOnUse" color-interpolation-filters="sRGB">
<feFlood flood-opacity="0" result="BackgroundImageFix"/>
<feGaussianBlur in="BackgroundImageFix" stdDeviation="4"/>
<feComposite in2="SourceAlpha" operator="in" result="effect1_backgroundBlur_1_6188"/>
<feBlend mode="normal" in="SourceGraphic" in2="effect1_backgroundBlur_1_6188" result="shape"/>
</filter>
<linearGradient id="paint0_linear_1_6188" x1="32" y1="0" x2="32" y2="64" gradientUnits="userSpaceOnUse">
<stop stop-color="#E541ED"/>
<stop offset="1" stop-color="#FEEBFF"/>
</linearGradient>
</defs>
</svg>
